<svg xmlns="http://www.w3.org/2000/svg" width="432.1" height="180" viewBox="0 0 432.1 180" class="brand-image"><style>.st0{fill:#C99C28;}</style><path class="st0" d="M47.6 125.5H21.1l-3.9 8.2c-.5 1.1-.8 2-.8 2.7 0 1.2 1 2.1 2.9 2.6v1.4H0V139c1.1-.2 2-.6 2.6-1.2.6-.6 1.3-1.7 2-3.3L26 89.7c.7-1.4 1-2.6 1-3.4 0-1.3-.8-2.3-2.5-2.8v-1.4h20.7v1.4c-1.7.5-2.5 1.3-2.5 2.5 0 .8.3 1.8.8 2.8l22.2 44.9c1 1.9 1.8 3.2 2.5 3.9.7.7 1.7 1.2 2.9 1.4v1.4H49.7V139c1.9-.3 2.8-1.2 2.8-2.6 0-.6-.3-1.5-.9-2.6l-4-8.3zm-3.6-8l-9.4-20.8-9.6 20.8h19zM86.8 107.8v28.9c0 .7.2 1.3.5 1.6.3.4.9.7 1.7.9v1.1H75v-1.1c.8-.2 1.4-.5 1.8-.9.3-.4.5-.9.5-1.6V96.4c0-.7-.2-1.2-.5-1.6-.3-.4-.9-.7-1.8-.9v-1.1h16.2v1.1c-1 .3-1.5.8-1.5 1.6 0 .6.3 1.2 1 1.8l26.2 27.3V96.4c0-.7-.2-1.2-.5-1.6-.3-.4-.9-.7-1.7-.9v-1.1h14v1.1c-.8.3-1.4.5-1.7.9-.3.4-.5.9-.5 1.6v40.3c0 .7.2 1.3.5 1.6.3.4.9.7 1.7.9v1.1h-15v-1.1c1-.2 1.5-.7 1.5-1.5 0-.5-.6-1.3-1.7-2.4l-26.7-27.5zM139.5 136.7V96.4c0-.7-.2-1.3-.5-1.6-.3-.4-.9-.7-1.7-.9v-1.1h26.5c5.8 0 10.3.7 13.4 2 4.5 1.9 7.8 5.1 9.9 9.5 1.7 3.5 2.5 7.6 2.5 12.2 0 8.2-2.5 14.4-7.6 18.8-2.1 1.8-4.6 3.1-7.4 3.9-2.8.8-6.5 1.2-10.8 1.2h-26.5v-1.1c.8-.2 1.4-.5 1.7-.9.3-.5.5-1 .5-1.7zm10.4-4.2H163c4.2 0 7.3-.6 9.4-1.7 4.5-2.4 6.7-7.2 6.7-14.3 0-5.1-1.2-9-3.6-11.7-1.4-1.5-3-2.6-4.9-3.2-1.9-.6-4.4-1-7.6-1h-13.1v31.9zM209.7 120.9v15.8c0 .7.2 1.3.5 1.6.3.4.9.7 1.7.9v1.1h-14.8v-1.1c.8-.2 1.4-.5 1.8-.9.3-.4.5-.9.5-1.6V96.4c0-.7-.1-1.3-.5-1.6-.3-.4-.9-.7-1.8-.9v-1.1h29.8c3.6 0 6.5.2 8.6.6 2.1.4 4 1.1 5.6 2.2 1.8 1.2 3.2 2.8 4.1 4.9.9 2 1.3 4.1 1.3 6.4 0 7.8-4.3 12.3-12.9 13.6l9.2 13.1c1.6 2.3 2.8 3.8 3.6 4.5.8.7 1.7 1 2.8 1.1v1.1H232v-1.1c1.2-.2 1.8-.6 1.8-1.3 0-.4-.6-1.4-1.6-3l-9.6-14h-12.9zm0-7.8h16c2.4 0 4-.1 5-.2s1.9-.4 2.7-.9c1.8-.9 2.7-2.7 2.7-5.1 0-2.5-.9-4.2-2.7-5.2-.8-.5-1.7-.8-2.7-.9-.9-.1-2.6-.2-5-.2h-16v12.5zM267.4 119.5v13H298c.7 0 1.2-.2 1.6-.5.4-.3.7-.9.9-1.8h1.1v12.3h-1.1c-.2-.8-.5-1.4-.9-1.7-.4-.3-.9-.5-1.6-.5h-43.2v-1.1c.8-.2 1.4-.5 1.8-.9.3-.4.5-.9.5-1.6V96.4c0-.7-.2-1.3-.5-1.6-.3-.4-.9-.7-1.8-.9v-1.1h42.4c.7 0 1.2-.2 1.6-.5.4-.3.7-.9.9-1.7h1.1v12.3h-1.1c-.2-.8-.5-1.4-.9-1.7-.4-.3-.9-.5-1.6-.5h-29.8V112h19.3c.7 0 1.2-.2 1.6-.5.4-.3.7-.9.9-1.7h1.1v12h-1.1c-.2-.8-.5-1.4-.9-1.7-.4-.3-.9-.5-1.6-.5h-19.3zM345.1 106.8l-10.9 27.5c-.6 1.4-.9 2.3-.9 2.6 0 1.1.8 1.8 2.6 2.3v1.1h-15.3v-1.1c1.6-.3 2.3-1.1 2.3-2.4 0-.3-.3-1.4-1-3.1l-13.6-35.1c-.7-1.7-1.3-2.9-1.8-3.5-.6-.6-1.3-1-2.4-1.2v-1.1h16.5v1.1c-1.5.3-2.2 1-2.2 2.1 0 .5.2 1.3.5 2.3l9.4 25.2 10.2-25.3c.4-1.1.7-1.8.7-2.1 0-1.1-.8-1.8-2.3-2.1v-1.1h17.3V94c-1.6.4-2.4 1.2-2.4 2.3 0 .4.2 1.1.6 2.1l9.7 25.2 9.4-24.7c.5-1.2.7-2.2.7-2.8 0-1-.8-1.7-2.5-2V93h16.4v1.1c-1.2.3-2 .8-2.4 1.3-.4.5-1 1.7-1.7 3.5L368.4 134c-.6 1.7-1 2.8-1 3.3 0 1.1.8 1.8 2.5 2.1v1.1h-15.5v-1.1c1.6-.3 2.4-1 2.4-2.3 0-.4-.4-1.5-1.1-3.1l-10.6-27.2zM432.1 96.8l-5.7 11.2-1-.6v-.6c0-.8-.7-1.6-2-2.5-4.1-2.9-9-4.3-14.6-4.3-2.5 0-4.6.3-6.5.9-1.4.5-2.5 1.1-3.3 2.1-.8.9-1.3 1.9-1.3 3 0 1.8 1.1 3 3.2 3.7 1.1.3 3.5.7 7.2 1.1l5.5.6c3.2.3 5.9.8 7.9 1.4 2 .6 3.8 1.4 5.4 2.5 1.6 1.1 2.8 2.6 3.7 4.5.9 1.9 1.4 3.8 1.4 6 0 3.3-1.1 6.3-3.2 8.9-1.9 2.4-5 4.1-9.1 5.3-3.1.9-6.3 1.3-9.9 1.3-6.3 0-12.5-1.5-18.6-4.5-1.3-.6-2.1-.9-2.3-.9-.3 0-.8.2-1.4.8l-1-.5 5.2-11.7 1 .5v.5c0 1 .5 2 1.5 2.9 1.5 1.3 3.8 2.5 7 3.5s6.2 1.5 9 1.5c3.1 0 5.7-.5 7.9-1.6 1.2-.6 2.2-1.4 2.9-2.3.7-1 1.1-2 1.1-3 0-1.6-.9-2.7-2.5-3.4-1.2-.5-3.6-.9-7.2-1.3l-5.4-.5c-3.6-.4-6.1-.7-7.6-1.1-1.5-.3-3-.9-4.5-1.6-2.1-1.1-3.8-2.6-5-4.7-1.1-1.9-1.6-4-1.6-6.5 0-4 1.4-7.4 4.1-10 3.6-3.5 9.1-5.2 16.3-5.2 3.1 0 5.9.3 8.5.9 2.6.6 5.9 1.8 9.8 3.4 1.3.5 2.1.8 2.5.8.5 0 1.1-.3 1.7-.8l.9.3z"/><g><path class="st0" d="M12.7 167.7v9.2c0 .4.1.7.3.9.2.2.5.4 1 .5v.6H5.4v-.6c.5-.1.8-.3 1-.5.2-.2.3-.5.3-.9v-23.4c0-.4-.1-.7-.3-1-.2-.2-.5-.4-1-.5v-.7h17.3c2.1 0 3.8.1 5 .4 1.3.3 2.3.7 3.3 1.3 1.1.7 1.8 1.6 2.4 2.8.5 1.2.8 2.4.8 3.7 0 4.5-2.5 7.1-7.5 7.9l5.4 7.6c.9 1.3 1.6 2.2 2.1 2.6.4.4 1 .6 1.6.7v.6h-10v-.6c.7-.1 1-.4 1-.7 0-.2-.3-.8-.9-1.8l-5.6-8.1h-7.6zm0-4.6H22c1.4 0 2.3 0 2.9-.1.6-.1 1.1-.3 1.6-.5 1-.5 1.5-1.5 1.5-3 0-1.4-.5-2.4-1.5-3-.5-.3-1-.5-1.5-.5-.6-.1-1.5-.1-2.9-.1h-9.3v7.2zM56.9 169v6.2h14.5c.3 0 .6-.1.8-.2.2-.2.3-.4.4-.8h.5v5.8h-.5c-.1-.4-.3-.7-.4-.8-.2-.2-.4-.2-.8-.2H50.9v-.5c.4-.1.7-.3.8-.4.1-.2.2-.4.2-.8v-19.1c0-.3-.1-.6-.2-.8-.2-.2-.4-.3-.8-.4v-.5H71c.3 0 .6-.1.8-.2.2-.2.3-.4.4-.8h.5v5.8h-.5c-.1-.4-.3-.7-.4-.8-.2-.2-.4-.2-.8-.2H56.9v5.3h9.2c.3 0 .6-.1.8-.2.2-.1.3-.4.4-.8h.5v5.7h-.5c-.1-.4-.3-.6-.4-.8-.2-.2-.4-.2-.8-.2h-9.2zM103.3 173.2H93.1l-1.5 3.2c-.2.5-.3.8-.3 1.1 0 .5.4.8 1.1 1v.5h-7.5v-.5c.4-.1.8-.2 1-.5.2-.2.5-.6.8-1.3l8.3-17.3c.3-.6.4-1 .4-1.3 0-.5-.3-.9-1-1.1v-.5h8v.5c-.7.2-1 .5-1 1 0 .3.1.7.3 1.1l8.6 17.4c.4.8.7 1.3 1 1.5.3.3.6.4 1.1.5v.5h-8.3v-.5c.7-.1 1.1-.5 1.1-1 0-.2-.1-.6-.3-1l-1.6-3.3zm-1.4-3.1l-3.7-8-3.7 8h7.4zM130.5 175.2h13.9c.3 0 .6-.1.8-.2.2-.2.3-.4.4-.8h.5v5.8h-.5c-.1-.4-.3-.7-.4-.8-.2-.2-.4-.2-.8-.2h-19.9v-.5c.4-.1.7-.3.8-.4.2-.2.2-.4.2-.8v-19.1c0-.3-.1-.6-.2-.8-.2-.2-.4-.3-.8-.4v-.5h7v.5c-.4.1-.7.2-.8.4-.1.2-.2.4-.2.8v17zM167.8 160.1v17.1c0 .3.1.6.2.8.2.2.4.3.8.4v.5h-7.1v-.5c.4-.1.7-.3.8-.4.2-.2.2-.4.2-.8v-17.1h-7c-.3 0-.6.1-.8.2-.2.1-.3.4-.4.8h-.5v-5.8h.5c.1.4.3.7.4.8.2.1.4.2.8.2h18.9c.3 0 .6-.1.8-.2.2-.2.3-.4.4-.8h.5v5.8h-.3c-.1-.4-.3-.7-.4-.8-.2-.2-.4-.2-.8-.2h-7zM203 169.5v7.7c0 .3.1.6.2.8.2.2.4.3.8.4v.5h-7v-.5c.4-.1.7-.3.9-.4.2-.2.2-.4.2-.8v-7.7l-7.3-10.3c-.6-.9-1.1-1.5-1.5-1.8-.4-.3-.8-.5-1.3-.6v-.5h8.9v.5c-.8.1-1.1.5-1.1 1 0 .2.3.6.7 1.3l4.1 6 4.2-6c.4-.6.7-1.1.7-1.3 0-.3-.1-.5-.3-.7-.2-.2-.5-.3-.8-.4v-.5h8.7v.5c-.5.1-.9.3-1.3.6-.3.3-.8.9-1.5 1.8l-7.3 10.4zM266.7 169h-6.8c-.4 0-.7.1-.9.3-.2.2-.4.5-.5 1h-.6v-6.4h.6c.2.5.3.8.5 1 .2.2.5.3.9.3H273v.6c-.5.1-.8.3-1 .5-.2.2-.3.5-.3.9v5.7c0 .4.1.7.3 1 .2.2.5.4 1 .5v.5c-5.2 3-10.3 4.5-15.2 4.5-4.5 0-8.1-1.1-10.9-3.2-3.5-2.7-5.3-6.4-5.3-11.1 0-4.4 1.6-7.9 4.7-10.6 3-2.5 7-3.7 11.9-3.7 1.6 0 3.1.2 4.5.4 1.4.3 3 .8 4.8 1.5.9.4 1.6.6 2 .6.3 0 .6-.1 1-.5l.6.3-3.3 6.6-.6-.3c0-.5-.1-.8-.2-1-.1-.2-.3-.4-.7-.7-.8-.6-2-1.1-3.6-1.6s-3.1-.7-4.5-.7c-2.9 0-5.3.8-7.2 2.4-2.1 1.8-3.2 4.2-3.2 7.3 0 2.9 1 5.3 3.1 7.1 1.9 1.6 4.5 2.5 7.6 2.5 1.5 0 3-.2 4.5-.5 1.5-.4 2.8-.8 3.8-1.4V169zM295.7 169.7v7.5c0 .3.1.6.2.8.2.2.4.3.8.4v.5h-7v-.5c.4-.1.7-.3.8-.4.2-.2.2-.4.2-.8v-19.1c0-.3-.1-.6-.2-.8-.2-.2-.4-.3-.8-.4v-.5h14.1c1.7 0 3.1.1 4.1.3 1 .2 1.9.5 2.6 1 .9.6 1.5 1.3 1.9 2.3.4.9.6 2 .6 3 0 3.7-2 5.8-6.1 6.5l4.4 6.2c.8 1.1 1.3 1.8 1.7 2.1.4.3.8.5 1.3.5v.5h-8.1v-.5c.6-.1.8-.3.8-.6 0-.2-.3-.7-.8-1.4l-4.6-6.6h-5.9zm0-3.7h7.6c1.1 0 1.9 0 2.4-.1s.9-.2 1.3-.4c.8-.4 1.3-1.3 1.3-2.4 0-1.2-.4-2-1.3-2.4-.4-.2-.8-.4-1.3-.4-.5-.1-1.3-.1-2.4-.1h-7.6v5.8zM339.2 156c3.9 0 7.1 1.1 9.4 3.2 2.4 2.2 3.6 5.1 3.6 8.6 0 2.2-.6 4.2-1.7 6-2.3 3.7-6 5.5-11.2 5.5-3.9 0-7-1.1-9.3-3.2-1.2-1.1-2.2-2.5-2.8-4.1-.6-1.4-.8-2.9-.8-4.4 0-2.3.6-4.3 1.7-6.2 2.1-3.5 5.9-5.4 11.1-5.4zm0 3.8c-2.2 0-3.9.6-5.4 1.9-1.7 1.5-2.5 3.5-2.5 5.9 0 2.4.9 4.4 2.5 5.9 1.4 1.3 3.2 1.9 5.4 1.9s4-.6 5.4-1.9c.9-.8 1.5-1.7 2-2.8.4-1 .6-2 .6-3 0-2.6-.8-4.6-2.6-6-1.4-1.2-3.2-1.9-5.4-1.9zM388.9 158.1v12.6c0 2.4-.5 4.2-1.3 5.4-1.6 2.1-4.9 3.2-9.8 3.2-3.6 0-6.4-.6-8.3-1.7-1.1-.7-1.9-1.6-2.3-2.7-.4-1.1-.6-2.5-.6-4.1v-12.6c0-.3-.1-.6-.2-.8-.2-.2-.4-.3-.8-.4v-.5h7.1v.5c-.4.1-.7.2-.8.4-.2.2-.2.4-.2.8v11.3c0 1.3.1 2.3.2 2.9.2.6.4 1.2.8 1.6 1.1 1.1 2.9 1.7 5.4 1.7 2.6 0 4.4-.6 5.4-1.7.4-.4.7-.9.8-1.6.1-.6.2-1.6.2-2.9v-11.3c0-.3-.1-.6-.2-.8-.2-.2-.4-.3-.8-.4v-.5h6.7v.5c-.4.1-.7.3-.8.4-.5.1-.5.4-.5.7zM409.7 169.8v7.4c0 .3.1.6.2.8.2.2.4.3.8.4v.5h-7v-.5c.4-.1.7-.3.8-.4.1-.2.2-.4.2-.8v-19.1c0-.3-.1-.6-.2-.8-.2-.2-.4-.3-.8-.4v-.5h14.1c1.6 0 2.9.1 3.9.3.9.2 1.8.6 2.6 1.1.7.6 1.3 1.3 1.8 2.2.4 1 .6 1.9.6 3 0 1.5-.4 2.8-1.2 4-.7 1-1.6 1.7-2.8 2.1-1.2.4-2.8.6-4.9.6h-8.1zm0-3.7h7.5c1.5 0 2.6-.2 3.2-.5.4-.2.7-.6.9-1 .2-.5.3-1 .3-1.5 0-.6-.1-1.1-.3-1.5-.2-.5-.6-.8-.9-1-.6-.3-1.6-.5-3.2-.5h-7.5v6z"/></g><g><path class="st0" d="M300 27.3l33.1 31.6 43-43M419.8 72.4l-45.9-37.5 44.1 42h14.1M373.6 61.9h6.5v6.5h-6.5zM373.6 53.3h6.5v6.5h-6.5zM364.9 61.9h6.5v6.5h-6.5zM364.9 53.3h6.5v6.5h-6.5z"/><g><path class="st0" d="M268 13.4L159 0l80.2 76.9h94.9"/></g><g><path class="st0" d="M160.6 48.2h9.2v9.2h-9.2zM160.6 60.5h9.2v9.2h-9.2zM148.3 60.5h9.2v9.2h-9.2zM148.3 48.2h9.2v9.2h-9.2z"/><g><path class="st0" d="M159 24.7l61.2 52.2L159 18.4 97.8 76.9"/></g></g><g><path class="st0" d="M56 15.9l43 43 33.1-31.6M0 76.9h14.1l44.1-42-45.9 37.5M52 61.9h6.5v6.5H52zM52 53.3h6.5v6.5H52zM60.7 61.9h6.5v6.5h-6.5zM60.7 53.3h6.5v6.5h-6.5z"/></g></g></svg>
