<svg xmlns="http://www.w3.org/2000/svg" preserveAspectRatio="xMidYMid" width="92" height="81.969" viewBox="0 0 92 81.969"><defs></defs><path d="M85.382 49.527L45.992 13.45 6.62 49.528l-6.606-7.4L45.99 0l45.996 42.125-6.604 7.402zm-4.035 2.346v30.105H10.654V51.873l35.34-31.733 35.353 31.733zM44.33 36.113c-1.025.132-2.058.396-3.098.79-1.04.393-1.98.93-2.823 1.613-.844.683-1.533 1.525-2.067 2.527-.535 1.002-.802 2.178-.802 3.528 0 1.25.264 2.37.79 3.364.53.995 1.217 1.896 2.067 2.705.85.81 1.813 1.554 2.89 2.236 1.076.683 2.17 1.336 3.285 1.96 1.024.578 2.025 1.165 3 1.758.973.594 1.833 1.225 2.58 1.892.747.67 1.348 1.388 1.802 2.16.454.772.68 1.633.68 2.583 0 1.037-.196 1.93-.592 2.67-.396.743-.912 1.354-1.55 1.837-.636.482-1.354.835-2.152 1.057-.797.223-1.6.334-2.405.334-.645 0-1.308-.037-1.99-.11-.68-.075-1.34-.202-1.976-.38-.64-.178-1.244-.42-1.815-.723-.572-.305-1.077-.687-1.516-1.147l-1.386-4.43H35.32v7.17c.266.162.646.333 1.144.51.498.18 1.088.35 1.77.512.68.163 1.427.31 2.24.445.813.134 1.66.237 2.538.312l-.153 4.72h3.447l.154-4.676c1.39-.072 2.707-.306 3.945-.7 1.238-.393 2.322-.967 3.252-1.725.93-.756 1.666-1.703 2.208-2.838.542-1.135.814-2.482.814-4.04 0-1.306-.295-2.468-.88-3.485-.586-1.015-1.344-1.943-2.275-2.782-.93-.838-1.98-1.598-3.153-2.28-1.172-.684-2.337-1.345-3.494-1.983-.967-.52-1.894-1.053-2.78-1.603-.887-.548-1.67-1.128-2.35-1.737-.682-.607-1.225-1.268-1.627-1.98-.403-.713-.603-1.492-.603-2.338 0-1.085.215-1.986.647-2.706.432-.72.963-1.298 1.592-1.736.63-.438 1.307-.75 2.032-.936.725-.185 1.388-.278 1.99-.278.526 0 1.05.026 1.57.078.52.052 1.01.138 1.472.256.46.12.88.267 1.252.445.374.18.693.387.956.624l1.714 4.275h1.868V37.69c-.557-.34-1.41-.68-2.56-1.012-1.15-.334-2.574-.553-4.274-.657l.132-3.695h-3.45l-.13 3.785z" class="cls-1"/></svg>
