<svg xmlns="http://www.w3.org/2000/svg" width="199.2" height="199.2" viewBox="0 0 199.2 199.2"><style>.st0{fill:#C99C28;}</style><path class="st0" d="M199.2 99.6c0-55-44.6-99.6-99.6-99.6S0 44.6 0 99.6c0 55 44.6 99.6 99.6 99.6s99.6-44.6 99.6-99.6zM42.3 44.4c2.7-2.6 6.3-3.9 10.8-3.9 4.4 0 8 1.3 10.6 3.9 2.7 2.6 4 5.9 4.1 9.8.1 3.9-1.3 7-4 9.6-2.7 2.6-6.4 3.8-10.8 3.8h-.2c-4.4 0-7.9-1.2-10.6-3.8-2.7-2.6-4-5.8-4-9.7 0-3.9 1.4-7.1 4.1-9.7zm-2.1 113.2v-79h26v79h-26zm121 0h-26v-42.1c0-5.6-1.3-10-3.5-13.2-2.2-3.2-5.6-4.8-10.2-4.8-3.4 0-6.2.9-8.5 2.8-2.3 1.8-3.9 4.1-5 6.8-.6 1.6-.8 3.8-.8 6.5v43.9H80.7c.1-21 .2-38.4.2-51.6 0-13.2 0-21.1-.1-23.6l-.1-3.8h26.5v11.3c1-1.6 2-3 3-4.2 1.1-1.3 2.6-2.7 4.5-4.2s4.2-2.7 6.9-3.5c2.7-.8 5.8-1.2 9.1-1.2 9.1 0 16.5 3 22.1 9.1 5.5 6.1 8.4 14.9 8.4 26.6v45.2z"/></svg>