<svg xmlns="http://www.w3.org/2000/svg" preserveAspectRatio="xMidYMid" width="98.031" height="73.468" viewBox="0 0 98.031 73.468"><defs></defs><path d="M-.004 73.468L19.37 36.26h20.586c4.33 8.058 7.544 14.074 7.6 14.176l1.452 2.72 1.452-2.72c.055-.102 3.27-6.118 7.6-14.175h20.584L98.02 73.47H-.004zm49.012-27.313c-1.204-2.25-3.08-5.75-5.305-9.894-3.224-6.002-7.19-13.368-10.968-20.338.22-8.822 7.434-15.93 16.273-15.93 8.84 0 16.053 7.108 16.272 15.93-3.78 6.97-7.744 14.336-10.968 20.34-2.225 4.144-4.1 7.644-5.304 9.893z" class="cls-1"/></svg>
