<svg xmlns="http://www.w3.org/2000/svg" preserveAspectRatio="xMidYMid" width="101" height="54" viewBox="0 0 101 54"><defs><style>.cls-1 { fill: #c99c26; fill-rule: evenodd; }</style></defs><path d="M88.662 35.914V11.192h12.335v24.722H88.662zM77.047 37.35l3.108 3.135c.347.35.543.825.543 1.32 0 .494-.196.97-.543 1.32l-5.08 5.123c-.346.35-.816.546-1.307.546-.49 0-.96-.196-1.308-.546l-2.423-2.444-4.028 4.065c-.695.7-1.924.7-2.618 0l-.768-.775-4.122 4.157c-.723.73-1.894.73-2.617 0l-3.56-3.592-3.748 3.78c-.347.35-.818.548-1.31.548-.49 0-.96-.197-1.307-.547L28.898 36.23H17.305c-1.022 0-1.85-.836-1.85-1.867V13.015c0-1.03.828-1.866 1.85-1.866h11.032L38.843.55c.723-.73 1.894-.73 2.617 0l5.432 5.478c.016.016.02.037.035.053l2.115-2.132h20.765l9.04 8.897h7.44V33.95h-5.87l-3.37 3.4zM51.862 17.222h-.622l-6.727 6.786-7.678-7.746 7.49-7.555c-.016-.014-.034-.025-.05-.04L40.153 4.51l-9.74 9.825c-.347.35-.817.547-1.308.547h-9.95v17.615h10.51c.49 0 .962.196 1.31.546l16.294 16.44 2.44-2.463-6.744-6.802c-.722-.73-.722-1.91 0-2.64.723-.73 1.894-.73 2.617 0l11.614 11.715 2.814-2.84-8.242-8.313c-.723-.73-.723-1.91 0-2.64.722-.73 1.893-.73 2.616 0l9.55 9.634c.013.012.026.026.038.04l.73.736 2.72-2.747-9.006-9.087c-.723-.73-.723-1.91 0-2.64.723-.728 1.893-.728 2.616 0l10.315 10.408.013.012 2.41 2.433 2.462-2.485-24.368-24.583zM0 11.192h12.335v25.966H0V11.192zm29.457 26.425l3.83 3.865 4.675 4.717c.723.728.723 1.91 0 2.638-.36.365-.834.547-1.308.547-.473 0-.947-.182-1.308-.547l-6.07-6.124-2.435-2.457c-.722-.73-.722-1.91 0-2.64.724-.73 1.896-.73 2.617 0z" class="cls-1"/></svg>