<svg xmlns="http://www.w3.org/2000/svg" width="199.2" height="199.2" class="icon-svg" viewBox="0 0 199.2 199.2"></style><path d="M199.2 99.6c0-55-44.6-99.6-99.6-99.6S0 44.6 0 99.6c0 55 44.6 99.6 99.6 99.6s99.6-44.6 99.6-99.6zm-71.4 42.7c-6.9 5.9-15.3 10.7-25.1 14.2s-20.3 5.3-31.5 5.3c-17.6 0-33.7-4.7-48.3-14.1 2.3.3 4.8.4 7.6.4 14.6 0 27.6-4.5 39-13.4-6.8-.1-12.9-2.2-18.3-6.3s-9.1-9.2-11.1-15.5c2.1.3 4.1.5 5.9.5 2.8 0 5.6-.4 8.3-1.1-7.3-1.5-13.4-5.1-18.2-10.9-4.8-5.7-7.3-12.4-7.3-20V81c5 2.5 9.3 3.8 14.3 4-4.3-2.9-7.6-6.6-10.2-11.2-2.5-4.6-3.8-9.6-3.8-15 0-5.7 1.4-11 4.3-15.9 7.9 9.7 17.4 17.4 28.7 23.2 11.3 5.8 23.3 9 36.2 9.7-.5-2.5-.8-4.9-.8-7.2 0-8.7 3.1-16.1 9.2-22.3 6.1-6.1 13.6-9.2 22.3-9.2 9.1 0 16.7 3.3 23 9.9 7.1-1.4 13.7-3.9 20-7.6-2.4 7.5-7 13.2-13.8 17.3 6-.6 12.1-2.3 18.1-4.9-4.4 6.4-9.6 11.8-15.8 16.3.1.9.1 2.3.1 4.1 0 8.4-1.2 16.9-3.7 25.3-2.5 8.4-6.2 16.5-11.2 24.2-5 7.9-11 14.7-17.9 20.6z"/></svg>
