<svg xmlns="http://www.w3.org/2000/svg" width="199.2" height="199.2" viewBox="0 0 199.2 199.2"><style>.st0{fill:#C99C28;}</style><path class="st0" d="M199.2 99.6c0-55-44.6-99.6-99.6-99.6S0 44.6 0 99.6c0 55 44.6 99.6 99.6 99.6s99.6-44.6 99.6-99.6zm-28.5 12.3c-.1 2.9-.3 6.5-.7 10.8-.4 4.4-1 8.3-1.8 11.7-.8 3.9-2.7 7.1-5.5 9.8-2.8 2.6-6.1 4.2-9.9 4.6-11.8 1.3-29.5 2-53.3 2s-41.5-.7-53.3-2c-3.8-.4-7.1-2-9.9-4.6-2.8-2.6-4.7-5.9-5.5-9.8-.7-3.4-1.3-7.3-1.7-11.7-.4-4.4-.6-8-.7-10.8-.1-2.9-.1-6.8-.1-11.9 0-5.1 0-9.1.1-11.9.1-2.9.3-6.5.7-10.8.4-4.4 1-8.3 1.8-11.7.8-3.9 2.7-7.1 5.5-9.8s6.1-4.2 9.9-4.6c11.8-1.3 29.5-2 53.3-2s41.5.7 53.3 2c3.8.4 7.1 2 9.9 4.6 2.8 2.6 4.7 5.9 5.5 9.8.7 3.4 1.3 7.3 1.7 11.7.4 4.4.6 8 .7 10.8.1 2.9.1 6.8.1 11.9 0 5.1-.1 9-.1 11.9z"/><path class="st0" d="M127.7 95.7L87.1 70.3c-1.6-1.1-3.4-1.1-5.2-.2-1.7 1-2.7 2.4-2.7 4.4v50.8c0 2 .9 3.5 2.7 4.4.8.4 1.7.6 2.5.6 1.1 0 2-.3 2.7-.8l40.7-25.4c1.6-.9 2.4-2.3 2.4-4.3-.1-1.8-.9-3.2-2.5-4.1z"/></svg>